<mxfile host="app.diagrams.net" modified="2023-04-27T12:55:45.161Z" agent="Mozilla/5.0 (Windows NT 10.0; Win64; x64) AppleWebKit/537.36 (KHTML, like Gecko) Chrome/98.0.4758.102 Safari/537.36" etag="bmZCS_w667CyZLWEjCGJ" version="21.2.1" type="github">
  <diagram name="第 1 页" id="4zZLxdTIqztNsRUMv2VY">
    <mxGraphModel dx="2062" dy="1814" grid="1" gridSize="10" guides="1" tooltips="1" connect="1" arrows="1" fold="1" page="1" pageScale="1" pageWidth="827" pageHeight="1169" math="0" shadow="0">
      <root>
        <mxCell id="0" />
        <mxCell id="1" parent="0" />
        <mxCell id="39Udfxt56jHMbbSmCLW3-1" value="" style="group" vertex="1" connectable="0" parent="1">
          <mxGeometry x="50" y="70" width="140" height="180" as="geometry" />
        </mxCell>
        <mxCell id="39Udfxt56jHMbbSmCLW3-2" value="Image" style="swimlane;fontStyle=0;childLayout=stackLayout;horizontal=1;startSize=30;horizontalStack=0;resizeParent=1;resizeParentMax=0;resizeLast=0;collapsible=1;marginBottom=0;whiteSpace=wrap;html=1;container=0;" vertex="1" parent="39Udfxt56jHMbbSmCLW3-1">
          <mxGeometry width="140" height="180" as="geometry" />
        </mxCell>
        <mxCell id="39Udfxt56jHMbbSmCLW3-3" value="..." style="text;strokeColor=none;fillColor=none;align=left;verticalAlign=middle;spacingLeft=4;spacingRight=4;overflow=hidden;points=[[0,0.5],[1,0.5]];portConstraint=eastwest;rotatable=0;whiteSpace=wrap;html=1;" vertex="1" parent="39Udfxt56jHMbbSmCLW3-1">
          <mxGeometry y="120" width="140" height="30" as="geometry" />
        </mxCell>
        <mxCell id="39Udfxt56jHMbbSmCLW3-4" value="&lt;font style=&quot;vertical-align: inherit;&quot;&gt;&lt;font style=&quot;vertical-align: inherit;&quot;&gt;&lt;font style=&quot;vertical-align: inherit;&quot;&gt;&lt;font style=&quot;vertical-align: inherit;&quot;&gt;Img N-1&lt;/font&gt;&lt;/font&gt;&lt;/font&gt;&lt;/font&gt;" style="text;strokeColor=none;fillColor=none;align=left;verticalAlign=middle;spacingLeft=4;spacingRight=4;overflow=hidden;points=[[0,0.5],[1,0.5]];portConstraint=eastwest;rotatable=0;whiteSpace=wrap;html=1;" vertex="1" parent="39Udfxt56jHMbbSmCLW3-1">
          <mxGeometry y="150" width="140" height="30" as="geometry" />
        </mxCell>
        <mxCell id="39Udfxt56jHMbbSmCLW3-5" value="Img 0" style="text;strokeColor=none;fillColor=none;align=left;verticalAlign=middle;spacingLeft=4;spacingRight=4;overflow=hidden;points=[[0,0.5],[1,0.5]];portConstraint=eastwest;rotatable=0;whiteSpace=wrap;html=1;" vertex="1" parent="39Udfxt56jHMbbSmCLW3-1">
          <mxGeometry y="30" width="140" height="30" as="geometry" />
        </mxCell>
        <mxCell id="39Udfxt56jHMbbSmCLW3-6" value="Img 1" style="text;strokeColor=none;fillColor=none;align=left;verticalAlign=middle;spacingLeft=4;spacingRight=4;overflow=hidden;points=[[0,0.5],[1,0.5]];portConstraint=eastwest;rotatable=0;whiteSpace=wrap;html=1;" vertex="1" parent="39Udfxt56jHMbbSmCLW3-1">
          <mxGeometry y="60" width="140" height="30" as="geometry" />
        </mxCell>
        <mxCell id="39Udfxt56jHMbbSmCLW3-7" value="Img 2" style="text;strokeColor=none;fillColor=none;align=left;verticalAlign=middle;spacingLeft=4;spacingRight=4;overflow=hidden;points=[[0,0.5],[1,0.5]];portConstraint=eastwest;rotatable=0;whiteSpace=wrap;html=1;" vertex="1" parent="39Udfxt56jHMbbSmCLW3-1">
          <mxGeometry y="90" width="140" height="30" as="geometry" />
        </mxCell>
        <mxCell id="39Udfxt56jHMbbSmCLW3-8" value="" style="shape=flexArrow;endArrow=classic;html=1;rounded=0;" edge="1" parent="1">
          <mxGeometry width="50" height="50" relative="1" as="geometry">
            <mxPoint x="215" y="148" as="sourcePoint" />
            <mxPoint x="285" y="148" as="targetPoint" />
          </mxGeometry>
        </mxCell>
        <mxCell id="39Udfxt56jHMbbSmCLW3-24" value="划分子集" style="text;html=1;strokeColor=none;fillColor=none;align=center;verticalAlign=middle;whiteSpace=wrap;rounded=0;" vertex="1" parent="1">
          <mxGeometry x="210" y="117" width="60" height="30" as="geometry" />
        </mxCell>
        <mxCell id="39Udfxt56jHMbbSmCLW3-41" style="edgeStyle=orthogonalEdgeStyle;rounded=0;orthogonalLoop=1;jettySize=auto;html=1;exitX=0.5;exitY=1;exitDx=0;exitDy=0;entryX=0.5;entryY=0;entryDx=0;entryDy=0;" edge="1" parent="1" source="39Udfxt56jHMbbSmCLW3-25" target="39Udfxt56jHMbbSmCLW3-24">
          <mxGeometry relative="1" as="geometry" />
        </mxCell>
        <mxCell id="39Udfxt56jHMbbSmCLW3-25" value="计&lt;br&gt;算&lt;br&gt;子&lt;br&gt;集&lt;br&gt;大&lt;br&gt;小&lt;br&gt;n" style="rounded=0;whiteSpace=wrap;html=1;" vertex="1" parent="1">
          <mxGeometry x="210" y="-110" width="60" height="140" as="geometry" />
        </mxCell>
        <mxCell id="39Udfxt56jHMbbSmCLW3-26" value="Image&lt;sup&gt;q&lt;/sup&gt;" style="swimlane;fontStyle=0;childLayout=stackLayout;horizontal=1;startSize=20;horizontalStack=0;resizeParent=1;resizeParentMax=0;resizeLast=0;collapsible=1;marginBottom=0;whiteSpace=wrap;html=1;" vertex="1" parent="1">
          <mxGeometry x="-120" y="-135" width="140" height="110" as="geometry">
            <mxRectangle x="270" y="120" width="80" height="30" as="alternateBounds" />
          </mxGeometry>
        </mxCell>
        <mxCell id="39Udfxt56jHMbbSmCLW3-28" value="Img&lt;sup&gt;q&lt;/sup&gt; k-3" style="text;strokeColor=none;fillColor=none;align=left;verticalAlign=middle;spacingLeft=4;spacingRight=4;overflow=hidden;points=[[0,0.5],[1,0.5]];portConstraint=eastwest;rotatable=0;whiteSpace=wrap;html=1;" vertex="1" parent="39Udfxt56jHMbbSmCLW3-26">
          <mxGeometry y="20" width="140" height="30" as="geometry" />
        </mxCell>
        <mxCell id="39Udfxt56jHMbbSmCLW3-30" value="Img&lt;sup&gt;q&lt;/sup&gt; k-2" style="text;strokeColor=none;fillColor=none;align=left;verticalAlign=middle;spacingLeft=4;spacingRight=4;overflow=hidden;points=[[0,0.5],[1,0.5]];portConstraint=eastwest;rotatable=0;whiteSpace=wrap;html=1;" vertex="1" parent="39Udfxt56jHMbbSmCLW3-26">
          <mxGeometry y="50" width="140" height="30" as="geometry" />
        </mxCell>
        <mxCell id="39Udfxt56jHMbbSmCLW3-32" value="Img&lt;sup&gt;q&lt;/sup&gt; k-1" style="text;strokeColor=none;fillColor=none;align=left;verticalAlign=middle;spacingLeft=4;spacingRight=4;overflow=hidden;points=[[0,0.5],[1,0.5]];portConstraint=eastwest;rotatable=0;whiteSpace=wrap;html=1;" vertex="1" parent="39Udfxt56jHMbbSmCLW3-26">
          <mxGeometry y="80" width="140" height="30" as="geometry" />
        </mxCell>
        <mxCell id="39Udfxt56jHMbbSmCLW3-33" value="Image&lt;sup&gt;q&lt;/sup&gt;" style="swimlane;fontStyle=0;childLayout=stackLayout;horizontal=1;startSize=20;horizontalStack=0;resizeParent=1;resizeParentMax=0;resizeLast=0;collapsible=1;marginBottom=0;whiteSpace=wrap;html=1;" vertex="1" parent="1">
          <mxGeometry x="-120" y="-25" width="140" height="50" as="geometry">
            <mxRectangle x="270" y="120" width="80" height="30" as="alternateBounds" />
          </mxGeometry>
        </mxCell>
        <mxCell id="39Udfxt56jHMbbSmCLW3-34" value="Img&lt;sup&gt;q&lt;/sup&gt; k" style="text;strokeColor=none;fillColor=none;align=left;verticalAlign=middle;spacingLeft=4;spacingRight=4;overflow=hidden;points=[[0,0.5],[1,0.5]];portConstraint=eastwest;rotatable=0;whiteSpace=wrap;html=1;" vertex="1" parent="1">
          <mxGeometry x="-120" y="-5" width="140" height="30" as="geometry" />
        </mxCell>
        <mxCell id="39Udfxt56jHMbbSmCLW3-39" style="edgeStyle=orthogonalEdgeStyle;rounded=0;orthogonalLoop=1;jettySize=auto;html=1;" edge="1" parent="1" source="39Udfxt56jHMbbSmCLW3-35" target="39Udfxt56jHMbbSmCLW3-25">
          <mxGeometry relative="1" as="geometry" />
        </mxCell>
        <mxCell id="39Udfxt56jHMbbSmCLW3-35" value="智&lt;br&gt;能&lt;br&gt;无&lt;br&gt;损&lt;br&gt;压&lt;br&gt;缩" style="rounded=0;whiteSpace=wrap;html=1;" vertex="1" parent="1">
          <mxGeometry x="66" y="-100" width="70" height="120" as="geometry" />
        </mxCell>
        <mxCell id="39Udfxt56jHMbbSmCLW3-37" style="edgeStyle=orthogonalEdgeStyle;rounded=0;orthogonalLoop=1;jettySize=auto;html=1;exitX=1;exitY=0.5;exitDx=0;exitDy=0;" edge="1" parent="1" source="39Udfxt56jHMbbSmCLW3-32" target="39Udfxt56jHMbbSmCLW3-35">
          <mxGeometry relative="1" as="geometry" />
        </mxCell>
        <mxCell id="39Udfxt56jHMbbSmCLW3-38" value="单图压缩比" style="text;html=1;strokeColor=none;fillColor=none;align=center;verticalAlign=middle;whiteSpace=wrap;rounded=0;" vertex="1" parent="1">
          <mxGeometry x="138" y="-65" width="70" height="20" as="geometry" />
        </mxCell>
        <mxCell id="39Udfxt56jHMbbSmCLW3-42" value="" style="shape=table;startSize=0;container=1;collapsible=0;childLayout=tableLayout;" vertex="1" parent="1">
          <mxGeometry x="294" y="33" width="180" height="236" as="geometry" />
        </mxCell>
        <mxCell id="39Udfxt56jHMbbSmCLW3-43" value="" style="shape=tableRow;horizontal=0;startSize=0;swimlaneHead=0;swimlaneBody=0;strokeColor=inherit;top=0;left=0;bottom=0;right=0;collapsible=0;dropTarget=0;fillColor=none;points=[[0,0.5],[1,0.5]];portConstraint=eastwest;" vertex="1" parent="39Udfxt56jHMbbSmCLW3-42">
          <mxGeometry width="180" height="40" as="geometry" />
        </mxCell>
        <mxCell id="39Udfxt56jHMbbSmCLW3-44" value="子集序号" style="shape=partialRectangle;html=1;whiteSpace=wrap;connectable=0;strokeColor=inherit;overflow=hidden;fillColor=none;top=0;left=0;bottom=0;right=0;pointerEvents=1;" vertex="1" parent="39Udfxt56jHMbbSmCLW3-43">
          <mxGeometry width="60" height="40" as="geometry">
            <mxRectangle width="60" height="40" as="alternateBounds" />
          </mxGeometry>
        </mxCell>
        <mxCell id="39Udfxt56jHMbbSmCLW3-45" value="起始图片" style="shape=partialRectangle;html=1;whiteSpace=wrap;connectable=0;strokeColor=inherit;overflow=hidden;fillColor=none;top=0;left=0;bottom=0;right=0;pointerEvents=1;" vertex="1" parent="39Udfxt56jHMbbSmCLW3-43">
          <mxGeometry x="60" width="60" height="40" as="geometry">
            <mxRectangle width="60" height="40" as="alternateBounds" />
          </mxGeometry>
        </mxCell>
        <mxCell id="39Udfxt56jHMbbSmCLW3-46" value="结束图片" style="shape=partialRectangle;html=1;whiteSpace=wrap;connectable=0;strokeColor=inherit;overflow=hidden;fillColor=none;top=0;left=0;bottom=0;right=0;pointerEvents=1;" vertex="1" parent="39Udfxt56jHMbbSmCLW3-43">
          <mxGeometry x="120" width="60" height="40" as="geometry">
            <mxRectangle width="60" height="40" as="alternateBounds" />
          </mxGeometry>
        </mxCell>
        <mxCell id="39Udfxt56jHMbbSmCLW3-47" value="" style="shape=tableRow;horizontal=0;startSize=0;swimlaneHead=0;swimlaneBody=0;strokeColor=inherit;top=0;left=0;bottom=0;right=0;collapsible=0;dropTarget=0;fillColor=none;points=[[0,0.5],[1,0.5]];portConstraint=eastwest;" vertex="1" parent="39Udfxt56jHMbbSmCLW3-42">
          <mxGeometry y="40" width="180" height="36" as="geometry" />
        </mxCell>
        <mxCell id="39Udfxt56jHMbbSmCLW3-48" value="0" style="shape=partialRectangle;html=1;whiteSpace=wrap;connectable=0;strokeColor=inherit;overflow=hidden;fillColor=none;top=0;left=0;bottom=0;right=0;pointerEvents=1;" vertex="1" parent="39Udfxt56jHMbbSmCLW3-47">
          <mxGeometry width="60" height="36" as="geometry">
            <mxRectangle width="60" height="36" as="alternateBounds" />
          </mxGeometry>
        </mxCell>
        <mxCell id="39Udfxt56jHMbbSmCLW3-49" value="0" style="shape=partialRectangle;html=1;whiteSpace=wrap;connectable=0;strokeColor=inherit;overflow=hidden;fillColor=none;top=0;left=0;bottom=0;right=0;pointerEvents=1;" vertex="1" parent="39Udfxt56jHMbbSmCLW3-47">
          <mxGeometry x="60" width="60" height="36" as="geometry">
            <mxRectangle width="60" height="36" as="alternateBounds" />
          </mxGeometry>
        </mxCell>
        <mxCell id="39Udfxt56jHMbbSmCLW3-50" value="n-1" style="shape=partialRectangle;html=1;whiteSpace=wrap;connectable=0;strokeColor=inherit;overflow=hidden;fillColor=none;top=0;left=0;bottom=0;right=0;pointerEvents=1;" vertex="1" parent="39Udfxt56jHMbbSmCLW3-47">
          <mxGeometry x="120" width="60" height="36" as="geometry">
            <mxRectangle width="60" height="36" as="alternateBounds" />
          </mxGeometry>
        </mxCell>
        <mxCell id="39Udfxt56jHMbbSmCLW3-51" value="" style="shape=tableRow;horizontal=0;startSize=0;swimlaneHead=0;swimlaneBody=0;strokeColor=inherit;top=0;left=0;bottom=0;right=0;collapsible=0;dropTarget=0;fillColor=none;points=[[0,0.5],[1,0.5]];portConstraint=eastwest;" vertex="1" parent="39Udfxt56jHMbbSmCLW3-42">
          <mxGeometry y="76" width="180" height="40" as="geometry" />
        </mxCell>
        <mxCell id="39Udfxt56jHMbbSmCLW3-52" value="1" style="shape=partialRectangle;html=1;whiteSpace=wrap;connectable=0;strokeColor=inherit;overflow=hidden;fillColor=none;top=0;left=0;bottom=0;right=0;pointerEvents=1;" vertex="1" parent="39Udfxt56jHMbbSmCLW3-51">
          <mxGeometry width="60" height="40" as="geometry">
            <mxRectangle width="60" height="40" as="alternateBounds" />
          </mxGeometry>
        </mxCell>
        <mxCell id="39Udfxt56jHMbbSmCLW3-53" value="n" style="shape=partialRectangle;html=1;whiteSpace=wrap;connectable=0;strokeColor=inherit;overflow=hidden;fillColor=none;top=0;left=0;bottom=0;right=0;pointerEvents=1;" vertex="1" parent="39Udfxt56jHMbbSmCLW3-51">
          <mxGeometry x="60" width="60" height="40" as="geometry">
            <mxRectangle width="60" height="40" as="alternateBounds" />
          </mxGeometry>
        </mxCell>
        <mxCell id="39Udfxt56jHMbbSmCLW3-54" value="2n-1" style="shape=partialRectangle;html=1;whiteSpace=wrap;connectable=0;strokeColor=inherit;overflow=hidden;fillColor=none;top=0;left=0;bottom=0;right=0;pointerEvents=1;" vertex="1" parent="39Udfxt56jHMbbSmCLW3-51">
          <mxGeometry x="120" width="60" height="40" as="geometry">
            <mxRectangle width="60" height="40" as="alternateBounds" />
          </mxGeometry>
        </mxCell>
        <mxCell id="39Udfxt56jHMbbSmCLW3-69" style="shape=tableRow;horizontal=0;startSize=0;swimlaneHead=0;swimlaneBody=0;strokeColor=inherit;top=0;left=0;bottom=0;right=0;collapsible=0;dropTarget=0;fillColor=none;points=[[0,0.5],[1,0.5]];portConstraint=eastwest;" vertex="1" parent="39Udfxt56jHMbbSmCLW3-42">
          <mxGeometry y="116" width="180" height="40" as="geometry" />
        </mxCell>
        <mxCell id="39Udfxt56jHMbbSmCLW3-70" value="..." style="shape=partialRectangle;html=1;whiteSpace=wrap;connectable=0;strokeColor=inherit;overflow=hidden;fillColor=none;top=0;left=0;bottom=0;right=0;pointerEvents=1;" vertex="1" parent="39Udfxt56jHMbbSmCLW3-69">
          <mxGeometry width="60" height="40" as="geometry">
            <mxRectangle width="60" height="40" as="alternateBounds" />
          </mxGeometry>
        </mxCell>
        <mxCell id="39Udfxt56jHMbbSmCLW3-71" value="..." style="shape=partialRectangle;html=1;whiteSpace=wrap;connectable=0;strokeColor=inherit;overflow=hidden;fillColor=none;top=0;left=0;bottom=0;right=0;pointerEvents=1;" vertex="1" parent="39Udfxt56jHMbbSmCLW3-69">
          <mxGeometry x="60" width="60" height="40" as="geometry">
            <mxRectangle width="60" height="40" as="alternateBounds" />
          </mxGeometry>
        </mxCell>
        <mxCell id="39Udfxt56jHMbbSmCLW3-72" value="..." style="shape=partialRectangle;html=1;whiteSpace=wrap;connectable=0;strokeColor=inherit;overflow=hidden;fillColor=none;top=0;left=0;bottom=0;right=0;pointerEvents=1;" vertex="1" parent="39Udfxt56jHMbbSmCLW3-69">
          <mxGeometry x="120" width="60" height="40" as="geometry">
            <mxRectangle width="60" height="40" as="alternateBounds" />
          </mxGeometry>
        </mxCell>
        <mxCell id="39Udfxt56jHMbbSmCLW3-55" value="" style="shape=tableRow;horizontal=0;startSize=0;swimlaneHead=0;swimlaneBody=0;strokeColor=inherit;top=0;left=0;bottom=0;right=0;collapsible=0;dropTarget=0;fillColor=none;points=[[0,0.5],[1,0.5]];portConstraint=eastwest;" vertex="1" parent="39Udfxt56jHMbbSmCLW3-42">
          <mxGeometry y="156" width="180" height="40" as="geometry" />
        </mxCell>
        <mxCell id="39Udfxt56jHMbbSmCLW3-56" value="k-2" style="shape=partialRectangle;html=1;whiteSpace=wrap;connectable=0;strokeColor=inherit;overflow=hidden;fillColor=none;top=0;left=0;bottom=0;right=0;pointerEvents=1;" vertex="1" parent="39Udfxt56jHMbbSmCLW3-55">
          <mxGeometry width="60" height="40" as="geometry">
            <mxRectangle width="60" height="40" as="alternateBounds" />
          </mxGeometry>
        </mxCell>
        <mxCell id="39Udfxt56jHMbbSmCLW3-57" value="(k-2)n" style="shape=partialRectangle;html=1;whiteSpace=wrap;connectable=0;strokeColor=inherit;overflow=hidden;fillColor=none;top=0;left=0;bottom=0;right=0;pointerEvents=1;" vertex="1" parent="39Udfxt56jHMbbSmCLW3-55">
          <mxGeometry x="60" width="60" height="40" as="geometry">
            <mxRectangle width="60" height="40" as="alternateBounds" />
          </mxGeometry>
        </mxCell>
        <mxCell id="39Udfxt56jHMbbSmCLW3-58" value="(k-1)n-1" style="shape=partialRectangle;html=1;whiteSpace=wrap;connectable=0;strokeColor=inherit;overflow=hidden;fillColor=none;top=0;left=0;bottom=0;right=0;pointerEvents=1;" vertex="1" parent="39Udfxt56jHMbbSmCLW3-55">
          <mxGeometry x="120" width="60" height="40" as="geometry">
            <mxRectangle width="60" height="40" as="alternateBounds" />
          </mxGeometry>
        </mxCell>
        <mxCell id="39Udfxt56jHMbbSmCLW3-59" value="" style="shape=tableRow;horizontal=0;startSize=0;swimlaneHead=0;swimlaneBody=0;strokeColor=inherit;top=0;left=0;bottom=0;right=0;collapsible=0;dropTarget=0;fillColor=none;points=[[0,0.5],[1,0.5]];portConstraint=eastwest;" vertex="1" parent="39Udfxt56jHMbbSmCLW3-42">
          <mxGeometry y="196" width="180" height="40" as="geometry" />
        </mxCell>
        <mxCell id="39Udfxt56jHMbbSmCLW3-60" value="k-1" style="shape=partialRectangle;html=1;whiteSpace=wrap;connectable=0;strokeColor=inherit;overflow=hidden;fillColor=none;top=0;left=0;bottom=0;right=0;pointerEvents=1;" vertex="1" parent="39Udfxt56jHMbbSmCLW3-59">
          <mxGeometry width="60" height="40" as="geometry">
            <mxRectangle width="60" height="40" as="alternateBounds" />
          </mxGeometry>
        </mxCell>
        <mxCell id="39Udfxt56jHMbbSmCLW3-61" value="(k-1)n" style="shape=partialRectangle;html=1;whiteSpace=wrap;connectable=0;strokeColor=inherit;overflow=hidden;fillColor=none;top=0;left=0;bottom=0;right=0;pointerEvents=1;" vertex="1" parent="39Udfxt56jHMbbSmCLW3-59">
          <mxGeometry x="60" width="60" height="40" as="geometry">
            <mxRectangle width="60" height="40" as="alternateBounds" />
          </mxGeometry>
        </mxCell>
        <mxCell id="39Udfxt56jHMbbSmCLW3-62" value="K-1" style="shape=partialRectangle;html=1;whiteSpace=wrap;connectable=0;strokeColor=inherit;overflow=hidden;fillColor=none;top=0;left=0;bottom=0;right=0;pointerEvents=1;" vertex="1" parent="39Udfxt56jHMbbSmCLW3-59">
          <mxGeometry x="120" width="60" height="40" as="geometry">
            <mxRectangle width="60" height="40" as="alternateBounds" />
          </mxGeometry>
        </mxCell>
        <mxCell id="39Udfxt56jHMbbSmCLW3-126" style="edgeStyle=orthogonalEdgeStyle;rounded=0;orthogonalLoop=1;jettySize=auto;html=1;exitX=0.5;exitY=0;exitDx=0;exitDy=0;entryX=1;entryY=0.5;entryDx=0;entryDy=0;" edge="1" parent="1" source="39Udfxt56jHMbbSmCLW3-65" target="39Udfxt56jHMbbSmCLW3-120">
          <mxGeometry relative="1" as="geometry">
            <Array as="points">
              <mxPoint x="384" y="-110" />
              <mxPoint x="1280" y="-110" />
              <mxPoint x="1280" y="178" />
            </Array>
          </mxGeometry>
        </mxCell>
        <mxCell id="39Udfxt56jHMbbSmCLW3-65" value="索引表" style="text;html=1;strokeColor=none;fillColor=none;align=center;verticalAlign=middle;whiteSpace=wrap;rounded=0;" vertex="1" parent="1">
          <mxGeometry x="354" y="3" width="60" height="30" as="geometry" />
        </mxCell>
        <mxCell id="39Udfxt56jHMbbSmCLW3-102" style="edgeStyle=orthogonalEdgeStyle;rounded=0;orthogonalLoop=1;jettySize=auto;html=1;exitX=0.5;exitY=0;exitDx=0;exitDy=0;entryX=0.495;entryY=0.976;entryDx=0;entryDy=0;entryPerimeter=0;" edge="1" parent="1" source="39Udfxt56jHMbbSmCLW3-66" target="39Udfxt56jHMbbSmCLW3-106">
          <mxGeometry relative="1" as="geometry">
            <mxPoint x="990" y="-30" as="targetPoint" />
          </mxGeometry>
        </mxCell>
        <mxCell id="39Udfxt56jHMbbSmCLW3-109" style="edgeStyle=orthogonalEdgeStyle;rounded=0;orthogonalLoop=1;jettySize=auto;html=1;entryX=0.5;entryY=0;entryDx=0;entryDy=0;" edge="1" parent="1" source="39Udfxt56jHMbbSmCLW3-66" target="39Udfxt56jHMbbSmCLW3-107">
          <mxGeometry relative="1" as="geometry" />
        </mxCell>
        <mxCell id="39Udfxt56jHMbbSmCLW3-110" style="edgeStyle=orthogonalEdgeStyle;rounded=0;orthogonalLoop=1;jettySize=auto;html=1;exitX=1;exitY=0.5;exitDx=0;exitDy=0;entryX=0;entryY=0.5;entryDx=0;entryDy=0;" edge="1" parent="1" source="39Udfxt56jHMbbSmCLW3-66" target="39Udfxt56jHMbbSmCLW3-111">
          <mxGeometry relative="1" as="geometry">
            <mxPoint x="1090" y="170" as="targetPoint" />
          </mxGeometry>
        </mxCell>
        <mxCell id="39Udfxt56jHMbbSmCLW3-119" style="edgeStyle=orthogonalEdgeStyle;rounded=0;orthogonalLoop=1;jettySize=auto;html=1;exitX=1;exitY=0.5;exitDx=0;exitDy=0;entryX=0;entryY=0.5;entryDx=0;entryDy=0;" edge="1" parent="1" source="39Udfxt56jHMbbSmCLW3-66" target="39Udfxt56jHMbbSmCLW3-114">
          <mxGeometry relative="1" as="geometry" />
        </mxCell>
        <mxCell id="39Udfxt56jHMbbSmCLW3-66" value="智&lt;br&gt;能&lt;br&gt;无&lt;br&gt;损&lt;br&gt;压&lt;br&gt;缩" style="rounded=0;whiteSpace=wrap;html=1;" vertex="1" parent="1">
          <mxGeometry x="955" y="59" width="70" height="220" as="geometry" />
        </mxCell>
        <mxCell id="39Udfxt56jHMbbSmCLW3-67" value="抽样图片" style="text;html=1;strokeColor=none;fillColor=none;align=center;verticalAlign=middle;whiteSpace=wrap;rounded=0;" vertex="1" parent="1">
          <mxGeometry x="-80" y="-165" width="60" height="30" as="geometry" />
        </mxCell>
        <mxCell id="39Udfxt56jHMbbSmCLW3-68" value="" style="shape=curlyBracket;whiteSpace=wrap;html=1;rounded=1;labelPosition=left;verticalLabelPosition=middle;align=right;verticalAlign=middle;" vertex="1" parent="1">
          <mxGeometry x="490" y="-20" width="40" height="380" as="geometry" />
        </mxCell>
        <mxCell id="39Udfxt56jHMbbSmCLW3-95" style="edgeStyle=orthogonalEdgeStyle;rounded=0;orthogonalLoop=1;jettySize=auto;html=1;exitX=1;exitY=0.5;exitDx=0;exitDy=0;entryX=0.019;entryY=0.301;entryDx=0;entryDy=0;entryPerimeter=0;" edge="1" parent="1" source="39Udfxt56jHMbbSmCLW3-79" target="39Udfxt56jHMbbSmCLW3-66">
          <mxGeometry relative="1" as="geometry" />
        </mxCell>
        <mxCell id="39Udfxt56jHMbbSmCLW3-96" style="edgeStyle=orthogonalEdgeStyle;rounded=0;orthogonalLoop=1;jettySize=auto;html=1;exitX=1;exitY=0.5;exitDx=0;exitDy=0;entryX=-0.003;entryY=0.652;entryDx=0;entryDy=0;entryPerimeter=0;" edge="1" parent="1" source="39Udfxt56jHMbbSmCLW3-94" target="39Udfxt56jHMbbSmCLW3-66">
          <mxGeometry relative="1" as="geometry" />
        </mxCell>
        <mxCell id="39Udfxt56jHMbbSmCLW3-100" value="" style="group" vertex="1" connectable="0" parent="1">
          <mxGeometry x="545" y="-27" width="340" height="409" as="geometry" />
        </mxCell>
        <mxCell id="39Udfxt56jHMbbSmCLW3-85" value="" style="rounded=0;whiteSpace=wrap;html=1;" vertex="1" parent="39Udfxt56jHMbbSmCLW3-100">
          <mxGeometry x="180.2088772845953" width="124.28198433420367" height="156.9722814498934" as="geometry" />
        </mxCell>
        <mxCell id="39Udfxt56jHMbbSmCLW3-9" value="" style="group" vertex="1" connectable="0" parent="39Udfxt56jHMbbSmCLW3-100">
          <mxGeometry y="226.73773987206823" width="124.28198433420367" height="156.9722814498934" as="geometry" />
        </mxCell>
        <mxCell id="39Udfxt56jHMbbSmCLW3-10" value="&lt;font style=&quot;vertical-align: inherit;&quot;&gt;&lt;font style=&quot;vertical-align: inherit;&quot;&gt;Image k-1&lt;/font&gt;&lt;/font&gt;" style="swimlane;fontStyle=0;childLayout=stackLayout;horizontal=1;startSize=30;horizontalStack=0;resizeParent=1;resizeParentMax=0;resizeLast=0;collapsible=1;marginBottom=0;whiteSpace=wrap;html=1;container=0;" vertex="1" parent="39Udfxt56jHMbbSmCLW3-9">
          <mxGeometry width="124.28198433420367" height="156.9722814498934" as="geometry" />
        </mxCell>
        <mxCell id="39Udfxt56jHMbbSmCLW3-11" value="..." style="text;strokeColor=none;fillColor=none;align=left;verticalAlign=middle;spacingLeft=4;spacingRight=4;overflow=hidden;points=[[0,0.5],[1,0.5]];portConstraint=eastwest;rotatable=0;whiteSpace=wrap;html=1;" vertex="1" parent="39Udfxt56jHMbbSmCLW3-9">
          <mxGeometry y="104.64818763326225" width="124.28198433420367" height="26.162046908315563" as="geometry" />
        </mxCell>
        <mxCell id="39Udfxt56jHMbbSmCLW3-12" value="&lt;font style=&quot;vertical-align: inherit;&quot;&gt;&lt;font style=&quot;vertical-align: inherit;&quot;&gt;Img N-1&lt;/font&gt;&lt;/font&gt;" style="text;strokeColor=none;fillColor=none;align=left;verticalAlign=middle;spacingLeft=4;spacingRight=4;overflow=hidden;points=[[0,0.5],[1,0.5]];portConstraint=eastwest;rotatable=0;whiteSpace=wrap;html=1;" vertex="1" parent="39Udfxt56jHMbbSmCLW3-9">
          <mxGeometry y="130.8102345415778" width="124.28198433420367" height="26.162046908315563" as="geometry" />
        </mxCell>
        <mxCell id="39Udfxt56jHMbbSmCLW3-13" value="&lt;font style=&quot;vertical-align: inherit;&quot;&gt;&lt;font style=&quot;vertical-align: inherit;&quot;&gt;&lt;font style=&quot;vertical-align: inherit;&quot;&gt;&lt;font style=&quot;vertical-align: inherit;&quot;&gt;&lt;font style=&quot;vertical-align: inherit;&quot;&gt;&lt;font style=&quot;vertical-align: inherit;&quot;&gt;Img (k-1)n&lt;/font&gt;&lt;/font&gt;&lt;/font&gt;&lt;/font&gt;&lt;/font&gt;&lt;/font&gt;" style="text;strokeColor=none;fillColor=none;align=left;verticalAlign=middle;spacingLeft=4;spacingRight=4;overflow=hidden;points=[[0,0.5],[1,0.5]];portConstraint=eastwest;rotatable=0;whiteSpace=wrap;html=1;" vertex="1" parent="39Udfxt56jHMbbSmCLW3-9">
          <mxGeometry y="26.162046908315563" width="124.28198433420367" height="26.162046908315563" as="geometry" />
        </mxCell>
        <mxCell id="39Udfxt56jHMbbSmCLW3-14" value="&lt;font style=&quot;vertical-align: inherit;&quot;&gt;&lt;font style=&quot;vertical-align: inherit;&quot;&gt;&lt;font style=&quot;vertical-align: inherit;&quot;&gt;&lt;font style=&quot;vertical-align: inherit;&quot;&gt;Img (k-1)n + 1&lt;/font&gt;&lt;/font&gt;&lt;/font&gt;&lt;/font&gt;" style="text;strokeColor=none;fillColor=none;align=left;verticalAlign=middle;spacingLeft=4;spacingRight=4;overflow=hidden;points=[[0,0.5],[1,0.5]];portConstraint=eastwest;rotatable=0;whiteSpace=wrap;html=1;" vertex="1" parent="39Udfxt56jHMbbSmCLW3-9">
          <mxGeometry y="52.32409381663113" width="124.28198433420367" height="26.162046908315563" as="geometry" />
        </mxCell>
        <mxCell id="39Udfxt56jHMbbSmCLW3-15" value="&lt;font style=&quot;vertical-align: inherit;&quot;&gt;&lt;font style=&quot;vertical-align: inherit;&quot;&gt;&lt;font style=&quot;vertical-align: inherit;&quot;&gt;&lt;font style=&quot;vertical-align: inherit;&quot;&gt;Img (k-1)n + 2&lt;/font&gt;&lt;/font&gt;&lt;/font&gt;&lt;/font&gt;" style="text;strokeColor=none;fillColor=none;align=left;verticalAlign=middle;spacingLeft=4;spacingRight=4;overflow=hidden;points=[[0,0.5],[1,0.5]];portConstraint=eastwest;rotatable=0;whiteSpace=wrap;html=1;" vertex="1" parent="39Udfxt56jHMbbSmCLW3-9">
          <mxGeometry y="78.4861407249467" width="124.28198433420367" height="26.162046908315563" as="geometry" />
        </mxCell>
        <mxCell id="39Udfxt56jHMbbSmCLW3-16" value="" style="group" vertex="1" connectable="0" parent="39Udfxt56jHMbbSmCLW3-100">
          <mxGeometry y="8.720682302771856" width="124.28198433420367" height="156.9722814498934" as="geometry" />
        </mxCell>
        <mxCell id="39Udfxt56jHMbbSmCLW3-17" value="Image 0" style="swimlane;fontStyle=0;childLayout=stackLayout;horizontal=1;startSize=30;horizontalStack=0;resizeParent=1;resizeParentMax=0;resizeLast=0;collapsible=1;marginBottom=0;whiteSpace=wrap;html=1;container=0;" vertex="1" parent="39Udfxt56jHMbbSmCLW3-16">
          <mxGeometry width="124.28198433420367" height="156.9722814498934" as="geometry" />
        </mxCell>
        <mxCell id="39Udfxt56jHMbbSmCLW3-18" value="..." style="text;strokeColor=none;fillColor=none;align=left;verticalAlign=middle;spacingLeft=4;spacingRight=4;overflow=hidden;points=[[0,0.5],[1,0.5]];portConstraint=eastwest;rotatable=0;whiteSpace=wrap;html=1;" vertex="1" parent="39Udfxt56jHMbbSmCLW3-16">
          <mxGeometry y="104.64818763326225" width="124.28198433420367" height="26.162046908315563" as="geometry" />
        </mxCell>
        <mxCell id="39Udfxt56jHMbbSmCLW3-19" value="&lt;font style=&quot;vertical-align: inherit;&quot;&gt;&lt;font style=&quot;vertical-align: inherit;&quot;&gt;&lt;font style=&quot;vertical-align: inherit;&quot;&gt;&lt;font style=&quot;vertical-align: inherit;&quot;&gt;Img n - 1&lt;/font&gt;&lt;/font&gt;&lt;/font&gt;&lt;/font&gt;" style="text;strokeColor=none;fillColor=none;align=left;verticalAlign=middle;spacingLeft=4;spacingRight=4;overflow=hidden;points=[[0,0.5],[1,0.5]];portConstraint=eastwest;rotatable=0;whiteSpace=wrap;html=1;" vertex="1" parent="39Udfxt56jHMbbSmCLW3-16">
          <mxGeometry y="130.8102345415778" width="124.28198433420367" height="26.162046908315563" as="geometry" />
        </mxCell>
        <mxCell id="39Udfxt56jHMbbSmCLW3-20" value="Img 0" style="text;strokeColor=none;fillColor=none;align=left;verticalAlign=middle;spacingLeft=4;spacingRight=4;overflow=hidden;points=[[0,0.5],[1,0.5]];portConstraint=eastwest;rotatable=0;whiteSpace=wrap;html=1;" vertex="1" parent="39Udfxt56jHMbbSmCLW3-16">
          <mxGeometry y="26.162046908315563" width="124.28198433420367" height="26.162046908315563" as="geometry" />
        </mxCell>
        <mxCell id="39Udfxt56jHMbbSmCLW3-21" value="Img 1" style="text;strokeColor=none;fillColor=none;align=left;verticalAlign=middle;spacingLeft=4;spacingRight=4;overflow=hidden;points=[[0,0.5],[1,0.5]];portConstraint=eastwest;rotatable=0;whiteSpace=wrap;html=1;" vertex="1" parent="39Udfxt56jHMbbSmCLW3-16">
          <mxGeometry y="52.32409381663113" width="124.28198433420367" height="26.162046908315563" as="geometry" />
        </mxCell>
        <mxCell id="39Udfxt56jHMbbSmCLW3-22" value="Img 2" style="text;strokeColor=none;fillColor=none;align=left;verticalAlign=middle;spacingLeft=4;spacingRight=4;overflow=hidden;points=[[0,0.5],[1,0.5]];portConstraint=eastwest;rotatable=0;whiteSpace=wrap;html=1;" vertex="1" parent="39Udfxt56jHMbbSmCLW3-16">
          <mxGeometry y="78.4861407249467" width="124.28198433420367" height="26.162046908315563" as="geometry" />
        </mxCell>
        <mxCell id="39Udfxt56jHMbbSmCLW3-23" value="" style="endArrow=none;dashed=1;html=1;dashPattern=1 3;strokeWidth=2;rounded=0;" edge="1" parent="39Udfxt56jHMbbSmCLW3-100">
          <mxGeometry width="50" height="50" relative="1" as="geometry">
            <mxPoint x="55.03916449086162" y="204.0639658848614" as="sourcePoint" />
            <mxPoint x="55.03916449086162" y="186.6226012793177" as="targetPoint" />
          </mxGeometry>
        </mxCell>
        <mxCell id="39Udfxt56jHMbbSmCLW3-77" value="" style="rounded=0;whiteSpace=wrap;html=1;" vertex="1" parent="39Udfxt56jHMbbSmCLW3-100">
          <mxGeometry x="197.96344647519584" y="13.953091684434968" width="124.28198433420367" height="156.9722814498934" as="geometry" />
        </mxCell>
        <mxCell id="39Udfxt56jHMbbSmCLW3-78" value="" style="group" vertex="1" connectable="0" parent="39Udfxt56jHMbbSmCLW3-100">
          <mxGeometry x="215.71801566579634" y="31.394456289978677" width="124.28198433420367" height="156.9722814498934" as="geometry" />
        </mxCell>
        <mxCell id="39Udfxt56jHMbbSmCLW3-79" value="Image 0" style="swimlane;fontStyle=0;childLayout=stackLayout;horizontal=1;startSize=30;horizontalStack=0;resizeParent=1;resizeParentMax=0;resizeLast=0;collapsible=1;marginBottom=0;whiteSpace=wrap;html=1;container=0;" vertex="1" parent="39Udfxt56jHMbbSmCLW3-78">
          <mxGeometry width="124.28198433420367" height="156.9722814498934" as="geometry" />
        </mxCell>
        <mxCell id="39Udfxt56jHMbbSmCLW3-80" value="..." style="text;strokeColor=none;fillColor=#FFFFFF;align=left;verticalAlign=middle;spacingLeft=4;spacingRight=4;overflow=hidden;points=[[0,0.5],[1,0.5]];portConstraint=eastwest;rotatable=0;whiteSpace=wrap;html=1;" vertex="1" parent="39Udfxt56jHMbbSmCLW3-78">
          <mxGeometry y="104.64818763326225" width="124.28198433420367" height="26.162046908315563" as="geometry" />
        </mxCell>
        <mxCell id="39Udfxt56jHMbbSmCLW3-81" value="&lt;font style=&quot;vertical-align: inherit;&quot;&gt;&lt;font style=&quot;vertical-align: inherit;&quot;&gt;&lt;font style=&quot;vertical-align: inherit;&quot;&gt;&lt;font style=&quot;vertical-align: inherit;&quot;&gt;Img n - 1&lt;/font&gt;&lt;/font&gt;&lt;/font&gt;&lt;/font&gt;" style="text;strokeColor=none;fillColor=#FFFFFF;align=left;verticalAlign=middle;spacingLeft=4;spacingRight=4;overflow=hidden;points=[[0,0.5],[1,0.5]];portConstraint=eastwest;rotatable=0;whiteSpace=wrap;html=1;" vertex="1" parent="39Udfxt56jHMbbSmCLW3-78">
          <mxGeometry y="130.8102345415778" width="124.28198433420367" height="26.162046908315563" as="geometry" />
        </mxCell>
        <mxCell id="39Udfxt56jHMbbSmCLW3-82" value="Img 0" style="text;strokeColor=none;fillColor=#FFFFFF;align=left;verticalAlign=middle;spacingLeft=4;spacingRight=4;overflow=hidden;points=[[0,0.5],[1,0.5]];portConstraint=eastwest;rotatable=0;whiteSpace=wrap;html=1;" vertex="1" parent="39Udfxt56jHMbbSmCLW3-78">
          <mxGeometry y="26.162046908315563" width="124.28198433420367" height="26.162046908315563" as="geometry" />
        </mxCell>
        <mxCell id="39Udfxt56jHMbbSmCLW3-83" value="Img 1" style="text;strokeColor=none;fillColor=#FFFFFF;align=left;verticalAlign=middle;spacingLeft=4;spacingRight=4;overflow=hidden;points=[[0,0.5],[1,0.5]];portConstraint=eastwest;rotatable=0;whiteSpace=wrap;html=1;" vertex="1" parent="39Udfxt56jHMbbSmCLW3-78">
          <mxGeometry y="52.32409381663113" width="124.28198433420367" height="26.162046908315563" as="geometry" />
        </mxCell>
        <mxCell id="39Udfxt56jHMbbSmCLW3-84" value="Img 2" style="text;strokeColor=none;fillColor=#FFFFFF;align=left;verticalAlign=middle;spacingLeft=4;spacingRight=4;overflow=hidden;points=[[0,0.5],[1,0.5]];portConstraint=eastwest;rotatable=0;whiteSpace=wrap;html=1;" vertex="1" parent="39Udfxt56jHMbbSmCLW3-78">
          <mxGeometry y="78.4861407249467" width="124.28198433420367" height="26.162046908315563" as="geometry" />
        </mxCell>
        <mxCell id="39Udfxt56jHMbbSmCLW3-86" value="" style="rounded=0;whiteSpace=wrap;html=1;" vertex="1" parent="39Udfxt56jHMbbSmCLW3-100">
          <mxGeometry x="180.2088772845953" y="220.63326226012794" width="124.28198433420367" height="156.9722814498934" as="geometry" />
        </mxCell>
        <mxCell id="39Udfxt56jHMbbSmCLW3-87" value="" style="rounded=0;whiteSpace=wrap;html=1;" vertex="1" parent="39Udfxt56jHMbbSmCLW3-100">
          <mxGeometry x="197.96344647519584" y="234.5863539445629" width="124.28198433420367" height="156.9722814498934" as="geometry" />
        </mxCell>
        <mxCell id="39Udfxt56jHMbbSmCLW3-88" value="" style="group" vertex="1" connectable="0" parent="39Udfxt56jHMbbSmCLW3-100">
          <mxGeometry x="215.71801566579634" y="252.02771855010658" width="124.28198433420367" height="156.9722814498934" as="geometry" />
        </mxCell>
        <mxCell id="39Udfxt56jHMbbSmCLW3-89" value="Image 1" style="swimlane;fontStyle=0;childLayout=stackLayout;horizontal=1;startSize=30;horizontalStack=0;resizeParent=1;resizeParentMax=0;resizeLast=0;collapsible=1;marginBottom=0;whiteSpace=wrap;html=1;container=0;" vertex="1" parent="39Udfxt56jHMbbSmCLW3-88">
          <mxGeometry width="124.28198433420367" height="156.9722814498934" as="geometry" />
        </mxCell>
        <mxCell id="39Udfxt56jHMbbSmCLW3-90" value="..." style="text;strokeColor=none;fillColor=#FFFFFF;align=left;verticalAlign=middle;spacingLeft=4;spacingRight=4;overflow=hidden;points=[[0,0.5],[1,0.5]];portConstraint=eastwest;rotatable=0;whiteSpace=wrap;html=1;" vertex="1" parent="39Udfxt56jHMbbSmCLW3-88">
          <mxGeometry y="104.64818763326225" width="124.28198433420367" height="26.162046908315563" as="geometry" />
        </mxCell>
        <mxCell id="39Udfxt56jHMbbSmCLW3-91" value="&lt;font style=&quot;vertical-align: inherit;&quot;&gt;&lt;font style=&quot;vertical-align: inherit;&quot;&gt;&lt;font style=&quot;vertical-align: inherit;&quot;&gt;&lt;font style=&quot;vertical-align: inherit;&quot;&gt;Img 2n - 1&lt;/font&gt;&lt;/font&gt;&lt;/font&gt;&lt;/font&gt;" style="text;strokeColor=none;fillColor=#FFFFFF;align=left;verticalAlign=middle;spacingLeft=4;spacingRight=4;overflow=hidden;points=[[0,0.5],[1,0.5]];portConstraint=eastwest;rotatable=0;whiteSpace=wrap;html=1;" vertex="1" parent="39Udfxt56jHMbbSmCLW3-88">
          <mxGeometry y="130.8102345415778" width="124.28198433420367" height="26.162046908315563" as="geometry" />
        </mxCell>
        <mxCell id="39Udfxt56jHMbbSmCLW3-92" value="Img n" style="text;strokeColor=none;fillColor=#FFFFFF;align=left;verticalAlign=middle;spacingLeft=4;spacingRight=4;overflow=hidden;points=[[0,0.5],[1,0.5]];portConstraint=eastwest;rotatable=0;whiteSpace=wrap;html=1;" vertex="1" parent="39Udfxt56jHMbbSmCLW3-88">
          <mxGeometry y="26.162046908315563" width="124.28198433420367" height="26.162046908315563" as="geometry" />
        </mxCell>
        <mxCell id="39Udfxt56jHMbbSmCLW3-93" value="Img n+1" style="text;strokeColor=none;fillColor=#FFFFFF;align=left;verticalAlign=middle;spacingLeft=4;spacingRight=4;overflow=hidden;points=[[0,0.5],[1,0.5]];portConstraint=eastwest;rotatable=0;whiteSpace=wrap;html=1;" vertex="1" parent="39Udfxt56jHMbbSmCLW3-88">
          <mxGeometry y="52.32409381663113" width="124.28198433420367" height="26.162046908315563" as="geometry" />
        </mxCell>
        <mxCell id="39Udfxt56jHMbbSmCLW3-94" value="Img n+2" style="text;strokeColor=none;fillColor=#FFFFFF;align=left;verticalAlign=middle;spacingLeft=4;spacingRight=4;overflow=hidden;points=[[0,0.5],[1,0.5]];portConstraint=eastwest;rotatable=0;whiteSpace=wrap;html=1;" vertex="1" parent="39Udfxt56jHMbbSmCLW3-88">
          <mxGeometry y="78.4861407249467" width="124.28198433420367" height="26.162046908315563" as="geometry" />
        </mxCell>
        <mxCell id="39Udfxt56jHMbbSmCLW3-103" value="" style="endArrow=none;html=1;rounded=0;entryX=0.999;entryY=0.008;entryDx=0;entryDy=0;entryPerimeter=0;" edge="1" parent="39Udfxt56jHMbbSmCLW3-88" target="39Udfxt56jHMbbSmCLW3-92">
          <mxGeometry width="50" height="50" relative="1" as="geometry">
            <mxPoint y="25.972281449893416" as="sourcePoint" />
            <mxPoint x="149.28198433420368" y="204.97228144989342" as="targetPoint" />
          </mxGeometry>
        </mxCell>
        <mxCell id="39Udfxt56jHMbbSmCLW3-98" value="" style="shape=flexArrow;endArrow=classic;html=1;rounded=0;" edge="1" parent="39Udfxt56jHMbbSmCLW3-100">
          <mxGeometry width="50" height="50" relative="1" as="geometry">
            <mxPoint x="124.28198433420367" y="191.4189765458422" as="sourcePoint" />
            <mxPoint x="186.42297650130547" y="191.4189765458422" as="targetPoint" />
          </mxGeometry>
        </mxCell>
        <mxCell id="39Udfxt56jHMbbSmCLW3-99" value="构建队列" style="text;html=1;strokeColor=none;fillColor=none;align=center;verticalAlign=middle;whiteSpace=wrap;rounded=0;" vertex="1" parent="39Udfxt56jHMbbSmCLW3-100">
          <mxGeometry x="119.84334203655352" y="164.82089552238807" width="53.26370757180157" height="26.162046908315563" as="geometry" />
        </mxCell>
        <mxCell id="39Udfxt56jHMbbSmCLW3-104" value="" style="endArrow=none;html=1;rounded=0;entryX=0.999;entryY=0.008;entryDx=0;entryDy=0;entryPerimeter=0;" edge="1" parent="1">
          <mxGeometry width="50" height="50" relative="1" as="geometry">
            <mxPoint x="761.7180156657963" y="31" as="sourcePoint" />
            <mxPoint x="885.7180156657963" y="31.027718550106556" as="targetPoint" />
          </mxGeometry>
        </mxCell>
        <mxCell id="39Udfxt56jHMbbSmCLW3-105" value="Image R&lt;span style=&quot;font-size: 10px;&quot;&gt; &lt;/span&gt;0" style="swimlane;fontStyle=0;childLayout=stackLayout;horizontal=1;startSize=20;horizontalStack=0;resizeParent=1;resizeParentMax=0;resizeLast=0;collapsible=1;marginBottom=0;whiteSpace=wrap;html=1;" vertex="1" parent="1">
          <mxGeometry x="931" y="-59" width="120" height="50" as="geometry">
            <mxRectangle x="270" y="120" width="80" height="30" as="alternateBounds" />
          </mxGeometry>
        </mxCell>
        <mxCell id="39Udfxt56jHMbbSmCLW3-106" value="Img&lt;span style=&quot;font-size: 10px;&quot;&gt;&lt;sup&gt;R&lt;/sup&gt;&amp;nbsp;&lt;/span&gt;&lt;span style=&quot;font-size: 8.33333px;&quot;&gt;3&lt;/span&gt;" style="text;strokeColor=none;fillColor=none;align=left;verticalAlign=middle;spacingLeft=4;spacingRight=4;overflow=hidden;points=[[0,0.5],[1,0.5]];portConstraint=eastwest;rotatable=0;whiteSpace=wrap;html=1;" vertex="1" parent="39Udfxt56jHMbbSmCLW3-105">
          <mxGeometry y="20" width="120" height="30" as="geometry" />
        </mxCell>
        <mxCell id="39Udfxt56jHMbbSmCLW3-107" value="Image R&lt;span style=&quot;font-size: 10px;&quot;&gt; &lt;/span&gt;1" style="swimlane;fontStyle=0;childLayout=stackLayout;horizontal=1;startSize=20;horizontalStack=0;resizeParent=1;resizeParentMax=0;resizeLast=0;collapsible=1;marginBottom=0;whiteSpace=wrap;html=1;" vertex="1" parent="1">
          <mxGeometry x="930" y="349" width="120" height="50" as="geometry">
            <mxRectangle x="270" y="120" width="80" height="30" as="alternateBounds" />
          </mxGeometry>
        </mxCell>
        <mxCell id="39Udfxt56jHMbbSmCLW3-108" value="Img&lt;span style=&quot;font-size: 10px;&quot;&gt;&lt;sup&gt;R&lt;/sup&gt;&amp;nbsp;n+&lt;/span&gt;&lt;span style=&quot;font-size: 8.33333px;&quot;&gt;3&lt;/span&gt;" style="text;strokeColor=none;fillColor=none;align=left;verticalAlign=middle;spacingLeft=4;spacingRight=4;overflow=hidden;points=[[0,0.5],[1,0.5]];portConstraint=eastwest;rotatable=0;whiteSpace=wrap;html=1;" vertex="1" parent="39Udfxt56jHMbbSmCLW3-107">
          <mxGeometry y="20" width="120" height="30" as="geometry" />
        </mxCell>
        <mxCell id="39Udfxt56jHMbbSmCLW3-121" style="edgeStyle=orthogonalEdgeStyle;rounded=0;orthogonalLoop=1;jettySize=auto;html=1;exitX=0.5;exitY=1;exitDx=0;exitDy=0;entryX=0.5;entryY=0;entryDx=0;entryDy=0;" edge="1" parent="1" source="39Udfxt56jHMbbSmCLW3-111" target="39Udfxt56jHMbbSmCLW3-120">
          <mxGeometry relative="1" as="geometry" />
        </mxCell>
        <mxCell id="39Udfxt56jHMbbSmCLW3-111" value="子集次优编码" style="rounded=0;whiteSpace=wrap;html=1;" vertex="1" parent="1">
          <mxGeometry x="1100" y="59" width="129" height="51" as="geometry" />
        </mxCell>
        <mxCell id="39Udfxt56jHMbbSmCLW3-118" style="edgeStyle=orthogonalEdgeStyle;rounded=0;orthogonalLoop=1;jettySize=auto;html=1;exitX=0.5;exitY=1;exitDx=0;exitDy=0;" edge="1" parent="1" source="39Udfxt56jHMbbSmCLW3-112" target="39Udfxt56jHMbbSmCLW3-111">
          <mxGeometry relative="1" as="geometry" />
        </mxCell>
        <mxCell id="39Udfxt56jHMbbSmCLW3-123" style="edgeStyle=orthogonalEdgeStyle;rounded=0;orthogonalLoop=1;jettySize=auto;html=1;exitX=1;exitY=0.5;exitDx=0;exitDy=0;entryX=1;entryY=0.3;entryDx=0;entryDy=0;" edge="1" parent="1" source="39Udfxt56jHMbbSmCLW3-112" target="39Udfxt56jHMbbSmCLW3-120">
          <mxGeometry relative="1" as="geometry" />
        </mxCell>
        <mxCell id="39Udfxt56jHMbbSmCLW3-112" value="构建Huffman编码表" style="rounded=0;whiteSpace=wrap;html=1;" vertex="1" parent="1">
          <mxGeometry x="1100" y="-55" width="130" height="60" as="geometry" />
        </mxCell>
        <mxCell id="39Udfxt56jHMbbSmCLW3-116" style="edgeStyle=orthogonalEdgeStyle;rounded=0;orthogonalLoop=1;jettySize=auto;html=1;exitX=0.5;exitY=0;exitDx=0;exitDy=0;entryX=0.5;entryY=1;entryDx=0;entryDy=0;" edge="1" parent="1" source="39Udfxt56jHMbbSmCLW3-113" target="39Udfxt56jHMbbSmCLW3-114">
          <mxGeometry relative="1" as="geometry" />
        </mxCell>
        <mxCell id="39Udfxt56jHMbbSmCLW3-124" style="edgeStyle=orthogonalEdgeStyle;rounded=0;orthogonalLoop=1;jettySize=auto;html=1;exitX=1;exitY=0.5;exitDx=0;exitDy=0;entryX=1;entryY=0.7;entryDx=0;entryDy=0;" edge="1" parent="1" source="39Udfxt56jHMbbSmCLW3-113" target="39Udfxt56jHMbbSmCLW3-120">
          <mxGeometry relative="1" as="geometry" />
        </mxCell>
        <mxCell id="39Udfxt56jHMbbSmCLW3-113" value="构建Huffman编码表" style="rounded=0;whiteSpace=wrap;html=1;" vertex="1" parent="1">
          <mxGeometry x="1099" y="353" width="130" height="60" as="geometry" />
        </mxCell>
        <mxCell id="39Udfxt56jHMbbSmCLW3-122" style="edgeStyle=orthogonalEdgeStyle;rounded=0;orthogonalLoop=1;jettySize=auto;html=1;exitX=0.5;exitY=0;exitDx=0;exitDy=0;entryX=0.5;entryY=1;entryDx=0;entryDy=0;" edge="1" parent="1" source="39Udfxt56jHMbbSmCLW3-114" target="39Udfxt56jHMbbSmCLW3-120">
          <mxGeometry relative="1" as="geometry" />
        </mxCell>
        <mxCell id="39Udfxt56jHMbbSmCLW3-114" value="子集次优编码" style="rounded=0;whiteSpace=wrap;html=1;" vertex="1" parent="1">
          <mxGeometry x="1099" y="240" width="129" height="51" as="geometry" />
        </mxCell>
        <mxCell id="39Udfxt56jHMbbSmCLW3-115" style="edgeStyle=orthogonalEdgeStyle;rounded=0;orthogonalLoop=1;jettySize=auto;html=1;exitX=1;exitY=0.5;exitDx=0;exitDy=0;entryX=0;entryY=0.5;entryDx=0;entryDy=0;" edge="1" parent="1" source="39Udfxt56jHMbbSmCLW3-108" target="39Udfxt56jHMbbSmCLW3-113">
          <mxGeometry relative="1" as="geometry" />
        </mxCell>
        <mxCell id="39Udfxt56jHMbbSmCLW3-117" style="edgeStyle=orthogonalEdgeStyle;rounded=0;orthogonalLoop=1;jettySize=auto;html=1;exitX=1;exitY=0.5;exitDx=0;exitDy=0;entryX=0;entryY=0.5;entryDx=0;entryDy=0;" edge="1" parent="1" source="39Udfxt56jHMbbSmCLW3-106" target="39Udfxt56jHMbbSmCLW3-112">
          <mxGeometry relative="1" as="geometry" />
        </mxCell>
        <mxCell id="39Udfxt56jHMbbSmCLW3-120" value="Storage" style="shape=datastore;whiteSpace=wrap;html=1;" vertex="1" parent="1">
          <mxGeometry x="1133.5" y="147.5" width="60" height="60" as="geometry" />
        </mxCell>
      </root>
    </mxGraphModel>
  </diagram>
</mxfile>
